<?xml-stylesheet type="text/css" href="../stylesPortofolio.css" ?>


<svg  width="412" height="619" viewBox="0 0 412 619" fill="none" xmlns="http://www.w3.org/2000/svg">
<rect x="2.99274" width="406.015" height="619" rx="50" fill="#4F4F4F"/>
<rect class="ground" x="18.954" y="21.96" width="374.092" height="564.1" rx="36" fill="#333333"/>

<path opacity="0.5" d="M409.007 248.423H410.5C411.328 248.423 412 249.095 412 249.923V378.684C412 379.513 411.328 380.184 410.5 380.184H409.007V248.423Z" fill="#4F4F4F"/>
<path opacity="0.5" d="M2.99274 328.029H1.5C0.671573 328.029 7.15256e-07 328.701 7.15256e-07 329.529V406.134C7.15256e-07 406.963 0.671573 407.634 1.5 407.634H2.99274V328.029Z" fill="#4F4F4F"/>
<path opacity="0.5" d="M2.99274 222.346H1.5C0.671573 222.346 7.15256e-07 223.018 7.15256e-07 223.846V300.451C7.15256e-07 301.28 0.671573 301.951 1.5 301.951H2.99274V222.346Z" fill="#4F4F4F"/>
<path opacity="0.5" d="M2.99274 138.623H1.5C0.671573 138.623 7.15256e-07 139.295 7.15256e-07 140.123V176.926C7.15256e-07 177.754 0.671573 178.426 1.5 178.426H2.99274V138.623Z" fill="#4F4F4F"/>
<path fill-rule="evenodd" clip-rule="evenodd" d="M112.726 21.9601H300.271H305.259C302.413 21.9601 300.278 24.8921 300.271 28.8045L300.271 28.8226L300.271 43.1355C300.271 54.1812 291.317 63.1354 280.271 63.1354H132.726C121.681 63.1354 112.726 54.1811 112.726 43.1354V21.9601ZM107.738 21.9601C110.232 21.9601 112.726 25.3914 112.726 28.8227V27.107V21.9601H107.738Z" fill="url(#paint0_linear_208_212)"/>
<g opacity="0.75">
<rect x="185.55" y="24.7051" width="42.8959" height="9.60746" rx="4.80373" fill="black"/>
<rect x="185.55" y="24.7051" width="42.8959" height="9.60746" rx="4.80373" fill="#333333"/>
</g>
<ellipse cx="240.915" cy="29.5088" rx="5.48668" ry="5.48668" fill="#323232"/>
<defs>
<linearGradient id="paint0_linear_208_212" x1="107.738" y1="21.9601" x2="304.261" y2="21.9601" gradientUnits="userSpaceOnUse">
<stop stop-color="#4F4F4F"/>
<stop offset="1" stop-color="#4F4F4F"/>
</linearGradient>
</defs>
</svg>
